<?xml version="1.0" encoding="utf-8"?>
<svg xmlns="http://www.w3.org/2000/svg" xmlns:svg="http://www.w3.org/2000/svg" version="1.1" viewBox="0 0 1400 990">
	<title>The titlepage for the Standard Ebooks edition of The Extraordinary Adventures of Arsène Lupin, Gentleman-Burglar, by Maurice Leblanc. Translated by George Morehead</title>
	<g aria-label="THE EXTRAORDINARY">
		<path d="m 134.43274,68.245613 h 18.33918 V 130 h 17.59064 V 68.245613 h 18.33919 V 52.807016 h -54.26901 z"/>
		<path d="m 217.62718,99.029239 h 24.88889 V 130 h 17.59065 V 52.807016 H 242.51607 V 83.590642 H 217.62718 V 52.807016 H 200.03654 V 130 h 17.59064 z"/>
		<path d="M 320.47222,52.807016 H 276.30848 V 130 h 44.16374 v -15.4386 h -26.5731 V 99.029239 h 25.45029 V 83.590642 H 293.89912 V 68.245613 h 26.5731 z"/>
		<path d="M 410.33333,52.807016 H 366.16959 V 130 h 44.16374 v -15.4386 h -26.5731 V 99.029239 h 25.4503 V 83.590642 h -25.4503 V 68.245613 h 26.5731 z"/>
		<path d="M 497.67983,130 467.55117,88.45614 492.81433,52.807016 H 470.9196 L 456.69737,73.859648 442.47515,52.807016 H 421.51609 L 445.84357,88.45614 416.65059,130 h 21.80117 L 456.69737,103.7076 474.94299,130 Z"/>
		<path d="m 495.75586,68.245613 h 18.33918 V 130 h 17.59064 V 68.245613 h 18.33919 V 52.807016 h -54.26901 z"/>
		<path d="M 561.35964,52.807016 V 130 h 17.59064 V 99.497075 L 602.52923,130 H 624.8918 L 598.3187,98.093567 c 9.4503,-2.994152 15.81287,-10.760234 15.81287,-22.362574 0,-15.157895 -10.8538,-22.923977 -25.16959,-22.923977 z m 17.59064,34.245615 V 66.842104 h 2.05848 c 6.64328,0 14.59649,0.467836 14.59649,10.105263 0,9.637428 -7.95321,10.105264 -14.59649,10.105264 z"/>
		<path d="m 672.63304,52.807016 h -16.2807 L 625.19445,130 h 18.90058 l 5.7076,-15.4386 h 29.38012 L 684.89035,130 h 18.90059 z m 0.56141,46.31579 h -17.40351 l 8.60818,-22.45614 h 0.18714 z"/>
		<path d="m 708.24854,91.356724 c 0,22.549706 16.09357,40.046786 38.92398,40.046786 22.17544,0 38.83041,-17.49708 38.83041,-40.046786 0,-22.549708 -17.40351,-39.953217 -38.83041,-39.953217 -21.23977,0 -38.92398,17.403509 -38.92398,39.953217 z m 18.99415,0 c 0,-11.508772 6.36258,-23.017544 19.92983,-23.017544 13.66082,0 19.83626,11.508772 19.83626,23.017544 0,11.508776 -5.80117,23.017546 -19.83626,23.017546 -14.40936,0 -19.92983,-11.50877 -19.92983,-23.017546 z"/>
		<path d="M 798.76461,52.807016 V 130 h 17.59064 V 99.497075 L 839.9342,130 h 22.36257 l -26.5731,-31.906433 c 9.45029,-2.994152 15.81287,-10.760234 15.81287,-22.362574 0,-15.157895 -10.8538,-22.923977 -25.16959,-22.923977 z m 17.59064,34.245615 V 66.842104 h 2.05848 c 6.64327,0 14.59649,0.467836 14.59649,10.105263 0,9.637428 -7.95322,10.105264 -14.59649,10.105264 z"/>
		<path d="M 870.83333,52.807016 V 130 h 22.36258 c 21.23976,0 38.92397,-16.09357 38.92397,-38.643276 0,-22.45614 -17.77778,-38.549708 -38.92397,-38.549708 z M 888.42398,114.2807 V 68.526315 h 2.71345 c 13.09941,0 21.9883,10.011696 21.9883,22.923977 -0.0936,12.912278 -8.98246,22.830408 -21.9883,22.830408 z"/>
		<path d="M 962.50295,52.807016 H 944.91231 V 130 h 17.59064 z"/>
		<path d="m 996.37722,82.093566 h 0.18714 L 1027.2544,130 h 17.5907 V 52.807016 h -17.5907 v 47.906434 h -0.1871 L 996.37722,52.807016 H 978.78658 V 130 h 17.59064 z"/>
		<path d="m 1100.2939,52.807016 h -16.2807 L 1052.8553,130 h 18.9006 l 5.7076,-15.4386 h 29.3801 L 1112.5512,130 h 18.9006 z m 0.5614,46.31579 h -17.4035 l 8.6082,-22.45614 h 0.1871 z"/>
		<path d="M 1139.3714,52.807016 V 130 h 17.5906 V 99.497075 L 1180.5409,130 h 22.3626 l -26.5731,-31.906433 c 9.4503,-2.994152 15.8129,-10.760234 15.8129,-22.362574 0,-15.157895 -10.8538,-22.923977 -25.1696,-22.923977 z m 17.5906,34.245615 V 66.842104 h 2.0585 c 6.6433,0 14.5965,0.467836 14.5965,10.105263 0,9.637428 -7.9532,10.105264 -14.5965,10.105264 z"/>
		<path d="m 1194.6125,52.807016 28.4445,42.5731 V 130 h 17.5906 V 95.380116 l 28.4445,-42.5731 h -21.1462 l -16.0936,24.701755 -16.0936,-24.701755 z"/>
	</g>
	<g aria-label="ADVENTURES OF">
		<path d="M 312.40643,162.80702 H 296.12572 L 264.96783,240 h 18.90058 l 5.70761,-15.4386 h 29.38011 L 324.66374,240 h 18.90058 z m 0.5614,46.31579 h -17.40351 l 8.60819,-22.45614 h 0.18713 z"/>
		<path d="M 351.48391,162.80702 V 240 h 22.36258 c 21.23976,0 38.92397,-16.09357 38.92397,-38.64328 0,-22.45614 -17.77777,-38.5497 -38.92397,-38.5497 z m 17.59065,61.47368 v -45.75439 h 2.71345 c 13.09941,0 21.9883,10.0117 21.9883,22.92398 -0.0936,12.91228 -8.98245,22.83041 -21.9883,22.83041 z"/>
		<path d="m 441.66227,240 h 13.84796 l 32.37427,-77.19298 h -19.83626 l -19.46199,50.71345 -19.46199,-50.71345 H 409.288 Z"/>
		<path d="M 539.96783,162.80702 H 495.80409 V 240 h 44.16374 v -15.4386 h -26.5731 v -15.53216 h 25.45029 v -15.4386 h -25.45029 v -15.34503 h 26.5731 z"/>
		<path d="m 572.67105,192.09357 h 0.18714 L 603.54825,240 h 17.59064 v -77.19298 h -17.59064 v 47.90643 h -0.18714 L 572.67105,162.80702 H 555.08041 V 240 h 17.59064 z"/>
		<path d="m 627.94883,178.24561 h 18.33918 V 240 h 17.59064 v -61.75439 h 18.33919 v -15.43859 h -54.26901 z"/>
		<path d="m 752.87428,162.80702 h -17.59065 v 44.63158 c 0,12.91228 -3.92982,16.65497 -12.53801,16.65497 -8.60819,0 -12.53801,-3.74269 -12.53801,-16.65497 v -44.63158 h -17.59064 v 49.77777 c 0,19.08772 10.47953,28.81872 30.12865,28.81872 19.64912,0 30.12866,-9.731 30.12866,-28.81872 z"/>
		<path d="M 768.17984,162.80702 V 240 h 17.59064 V 209.49708 L 809.34943,240 H 831.712 l -26.5731,-31.90643 c 9.45029,-2.99416 15.81287,-10.76024 15.81287,-22.36258 0,-15.15789 -10.8538,-22.92397 -25.16959,-22.92397 z m 17.59064,34.24561 V 176.8421 h 2.05848 c 6.64327,0 14.59649,0.46784 14.59649,10.10527 0,9.63742 -7.95322,10.10526 -14.59649,10.10526 z"/>
		<path d="M 884.4123,162.80702 H 840.24856 V 240 h 44.16374 v -15.4386 h -26.5731 v -15.53216 h 25.4503 v -15.4386 h -25.4503 v -15.34503 h 26.5731 z"/>
		<path d="m 927.96931,161.40351 c -12.44444,0 -25.16959,9.16959 -25.16959,23.57895 0,8.04678 5.4269,15.25146 14.69006,19.83625 9.16959,4.5848 17.40351,7.11111 17.40351,12.72515 0,7.20468 -7.29825,7.57895 -11.1345,7.57895 -8.60819,0 -18.90059,-8.70176 -18.90059,-8.70176 l -8.79532,14.78363 c 0,0 10.94737,10.19883 29.00585,10.19883 15.06433,0 29.09941,-6.45614 29.09941,-24.88889 0,-10.10526 -9.45029,-17.40351 -18.05848,-21.05263 -8.79532,-3.74269 -16.09356,-6.83041 -16.09356,-11.13451 0,-4.21052 3.18128,-6.92397 9.16959,-6.92397 7.95321,0 15.62573,5.33333 15.62573,5.33333 l 7.11111,-14.03509 c 0,0 -9.91813,-7.29824 -23.95322,-7.29824 z"/>
		<path d="m 994.5132,201.35672 c 0,22.54971 16.0936,40.04679 38.924,40.04679 22.1754,0 38.8304,-17.49708 38.8304,-40.04679 0,-22.5497 -17.4035,-39.95321 -38.8304,-39.95321 -21.2398,0 -38.924,17.40351 -38.924,39.95321 z m 18.9941,0 c 0,-11.50877 6.3626,-23.01754 19.9299,-23.01754 13.6608,0 19.8362,11.50877 19.8362,23.01754 0,11.50878 -5.8011,23.01755 -19.8362,23.01755 -14.4094,0 -19.9299,-11.50877 -19.9299,-23.01755 z"/>
		<path d="m 1129.6608,162.80702 h -44.6315 V 240 h 17.5906 v -30.97076 h 24.9825 v -15.4386 h -24.9825 v -15.34503 h 27.0409 z"/>
	</g>
	<g aria-label="ARSÈNE LUPIN,">
		<path d="m 345.66666,272.80702 h -16.2807 L 298.22806,350 h 18.90059 l 5.7076,-15.4386 h 29.38012 L 357.92397,350 h 18.90059 z m 0.5614,46.31579 h -17.4035 l 8.60818,-22.45614 h 0.18714 z"/>
		<path d="M 384.74415,272.80702 V 350 h 17.59064 V 319.49708 L 425.91374,350 h 22.36257 l -26.5731,-31.90643 c 9.45029,-2.99416 15.81287,-10.76024 15.81287,-22.36258 0,-15.15789 -10.8538,-22.92397 -25.16959,-22.92397 z m 17.59064,34.24561 V 286.8421 h 2.05848 c 6.64328,0 14.59649,0.46784 14.59649,10.10527 0,9.63742 -7.95321,10.10526 -14.59649,10.10526 z"/>
		<path d="m 485.25732,271.40351 c -12.44445,0 -25.16959,9.16959 -25.16959,23.57895 0,8.04678 5.4269,15.25146 14.69006,19.83625 9.16959,4.5848 17.4035,7.11111 17.4035,12.72515 0,7.20468 -7.29824,7.57895 -11.1345,7.57895 -8.60819,0 -18.90058,-8.70176 -18.90058,-8.70176 l -8.79533,14.78363 c 0,0 10.94737,10.19883 29.00585,10.19883 15.06433,0 29.09942,-6.45614 29.09942,-24.88889 0,-10.10526 -9.45029,-17.40351 -18.05848,-21.05263 -8.79532,-3.74269 -16.09357,-6.83041 -16.09357,-11.13451 0,-4.21052 3.18129,-6.92397 9.16959,-6.92397 7.95322,0 15.62573,5.33333 15.62573,5.33333 l 7.11111,-14.03509 c 0,0 -9.91812,-7.29824 -23.95321,-7.29824 z"/>
		<path d="m 532.63158,242.21052 -8.51462,10.76024 22.26901,12.91228 5.23977,-7.20468 z m 36.21053,30.5965 H 524.67837 V 350 h 44.16374 v -15.4386 h -26.5731 v -15.53216 h 25.45029 v -15.4386 h -25.45029 v -15.34503 h 26.5731 z"/>
		<path d="m 601.54533,302.09357 h 0.18714 L 632.42253,350 h 17.59064 v -77.19298 h -17.59064 v 47.90643 h -0.18714 L 601.54533,272.80702 H 583.95469 V 350 h 17.59064 z"/>
		<path d="M 710.42107,272.80702 H 666.25733 V 350 h 44.16374 v -15.4386 h -26.5731 v -15.53216 h 25.4503 v -15.4386 h -25.4503 v -15.34503 h 26.5731 z"/>
		<path d="M 773.70906,272.80702 H 756.11841 V 350 h 44.16375 v -15.4386 h -26.5731 z"/>
		<path d="m 873.25438,272.80702 h -17.59064 v 44.63158 c 0,12.91228 -3.92982,16.65497 -12.53801,16.65497 -8.60819,0 -12.53801,-3.74269 -12.53801,-16.65497 v -44.63158 h -17.59065 v 49.77777 c 0,19.08772 10.47954,28.81872 30.12866,28.81872 19.64912,0 30.12865,-9.731 30.12865,-28.81872 z"/>
		<path d="M 888.55994,272.80702 V 350 h 17.59065 v -28.63158 h 10.5731 c 15.06432,0 26.38596,-8.88889 26.38596,-24.79532 0,-16 -11.32164,-23.76608 -26.38596,-23.76608 z m 17.59065,34.52631 V 286.8421 h 4.95906 c 6.92398,0 13.47369,2.33919 13.47369,10.2924 0,7.85965 -6.54971,10.19883 -13.47369,10.19883 z"/>
		<path d="M 973.46785,272.80702 H 955.8772 V 350 h 17.59065 z"/>
		<path d="m 1007.3421,302.09357 h 0.1871 L 1038.2193,350 h 17.5907 v -77.19298 h -17.5907 v 47.90643 h -0.1871 l -30.6901,-47.90643 H 989.75147 V 350 h 17.59063 z"/>
		<path d="m 1082.7208,329.97661 c -5.8948,0 -10.6667,4.77193 -10.6667,10.76023 0,4.95907 3.462,8.70176 8.0468,9.82456 -1.4971,7.76609 -7.1111,13.09942 -7.1111,13.09942 l 4.7719,3.92982 c 7.6725,-6.36257 15.7193,-15.53216 15.7193,-26.8538 0,-5.9883 -4.7719,-10.76023 -10.7602,-10.76023 z"/>
	</g>
	<g aria-label="GENTLEMAN-BURGLAR">
		<path d="M 176.02192,416.77193 H 140.3728 v 13.56725 h 17.77778 c 0,9.45029 -8.32749,14.87719 -16.74854,14.87719 -10.8538,0 -19.64913,-10.66666 -19.64913,-23.76608 0,-13.38012 8.79533,-24.14035 19.64913,-24.14035 6.83041,0 12.72514,2.71345 17.21637,9.91813 l 11.50877,-12.63158 c -6.73684,-8.14035 -16.18713,-13.19298 -29.75438,-13.19298 -21.7076,0 -37.61404,17.87134 -37.61404,40.04678 0,22.08187 16.84211,39.95322 37.61404,39.95322 15.15789,0 31.43859,-8.32749 35.64912,-27.88304 z"/>
		<path d="M 232.86988,382.80702 H 188.70613 V 460 h 44.16375 v -15.4386 h -26.5731 v -15.53216 h 25.45029 v -15.4386 h -25.45029 v -15.34503 h 26.5731 z"/>
		<path d="m 265.5731,412.09357 h 0.18713 L 296.45029,460 h 17.59064 v -77.19298 h -17.59064 v 47.90643 h -0.18713 L 265.5731,382.80702 H 247.98245 V 460 h 17.59065 z"/>
		<path d="m 320.85087,398.24561 h 18.33919 V 460 h 17.59064 v -61.75439 h 18.33918 v -15.43859 h -54.26901 z"/>
		<path d="M 404.04531,382.80702 H 386.45467 V 460 h 44.16374 v -15.4386 h -26.5731 z"/>
		<path d="M 488.43274,382.80702 H 444.269 V 460 h 44.16374 v -15.4386 h -26.5731 v -15.53216 h 25.4503 v -15.4386 h -25.4503 v -15.34503 h 26.5731 z"/>
		<path d="m 567.35817,460 h 17.59065 l -6.92398,-77.19298 h -18.71345 l -17.12281,44.53801 -17.12281,-44.53801 H 506.35232 L 499.42835,460 h 17.59064 l 3.64912,-45.75439 h 0.46784 l 15.81286,45.28655 h 10.47954 l 15.81286,-45.28655 h 0.46784 z"/>
		<path d="M 636.2003,382.80702 H 619.9196 L 588.7617,460 h 18.90059 l 5.7076,-15.4386 h 29.38012 L 648.45761,460 h 18.90059 z m 0.5614,46.31579 h -17.4035 l 8.60818,-22.45614 h 0.18714 z"/>
		<path d="m 692.8684,412.09357 h 0.18714 L 723.74559,460 h 17.59065 v -77.19298 h -17.59065 v 47.90643 h -0.18713 L 692.8684,382.80702 H 675.27776 V 460 h 17.59064 z"/>
		<path d="m 757.58043,425.75439 v 14.31579 h 30.12866 v -14.31579 z"/>
		<path d="M 803.88158,382.80702 V 460 h 29.28655 c 16,0 25.26316,-8.79532 25.26316,-21.52047 0,-12.44444 -6.83041,-17.77778 -16.46784,-19.46199 6.54971,-3.36842 9.63743,-9.45029 9.63743,-16.5614 0,-14.69006 -10.47954,-19.64912 -23.76609,-19.64912 z m 17.59064,30.22222 v -16.65497 h 1.40351 c 7.67252,0 11.69591,2.33918 11.69591,7.85965 0,6.45614 -4.11696,8.79532 -11.69591,8.79532 z m 0,33.40351 v -18.24562 h 5.52047 c 8.32749,0 12.91228,2.52632 12.91228,9.63743 0,6.08187 -4.58479,8.60819 -12.91228,8.60819 z"/>
		<path d="m 930.52048,382.80702 h -17.59065 v 44.63158 c 0,12.91228 -3.92982,16.65497 -12.53801,16.65497 -8.60819,0 -12.53801,-3.74269 -12.53801,-16.65497 v -44.63158 h -17.59064 v 49.77777 c 0,19.08772 10.47953,28.81872 30.12865,28.81872 19.64912,0 30.12866,-9.731 30.12866,-28.81872 z"/>
		<path d="M 945.82604,382.80702 V 460 h 17.59064 V 429.49708 L 986.99563,460 h 22.36257 l -26.5731,-31.90643 c 9.45029,-2.99416 15.81287,-10.76024 15.81287,-22.36258 0,-15.15789 -10.8538,-22.92397 -25.16959,-22.92397 z m 17.59064,34.24561 V 396.8421 h 2.05848 c 6.64327,0 14.59649,0.46784 14.59649,10.10527 0,9.63742 -7.95322,10.10526 -14.59649,10.10526 z"/>
		<path d="m 1087.6959,416.77193 h -35.6491 v 13.56725 h 17.7778 c 0,9.45029 -8.3275,14.87719 -16.7486,14.87719 -10.8538,0 -19.6491,-10.66666 -19.6491,-23.76608 0,-13.38012 8.7953,-24.14035 19.6491,-24.14035 6.8305,0 12.7252,2.71345 17.2164,9.91813 l 11.5088,-12.63158 c -6.7368,-8.14035 -16.1871,-13.19298 -29.7544,-13.19298 -21.7076,0 -37.614,17.87134 -37.614,40.04678 0,22.08187 16.8421,39.95322 37.614,39.95322 15.1579,0 31.4386,-8.32749 35.6491,-27.88304 z"/>
		<path d="m 1117.9708,382.80702 h -17.5907 V 460 h 44.1638 v -15.4386 h -26.5731 z"/>
		<path d="m 1198.8611,382.80702 h -16.2807 L 1151.4225,460 h 18.9006 l 5.7076,-15.4386 h 29.3801 L 1211.1184,460 h 18.9006 z m 0.5614,46.31579 h -17.4035 l 8.6082,-22.45614 h 0.1871 z"/>
		<path d="M 1237.9386,382.80702 V 460 h 17.5907 V 429.49708 L 1279.1082,460 h 22.3626 l -26.5731,-31.90643 c 9.4503,-2.99416 15.8129,-10.76024 15.8129,-22.36258 0,-15.15789 -10.8538,-22.92397 -25.1696,-22.92397 z m 17.5907,34.24561 V 396.8421 h 2.0585 c 6.6432,0 14.5965,0.46784 14.5965,10.10527 0,9.63742 -7.9533,10.10526 -14.5965,10.10526 z"/>
	</g>
	<g aria-label="MAURICE LEBLANC">
		<path d="m 373.32018,700 h 13.19298 l -5.19298,-57.89474 h -14.03509 l -12.8421,33.40351 -12.84211,-33.40351 H 327.56579 L 322.37281,700 h 13.19298 l 2.73684,-34.31579 h 0.35088 l 11.85965,33.96491 h 7.85965 l 11.85965,-33.96491 h 0.35088 z"/>
		<path d="M 426.20175,642.10526 H 413.99123 L 390.62281,700 h 14.17543 l 4.28071,-11.57895 h 22.03508 L 435.39474,700 h 14.17543 z m 0.42106,34.73685 H 413.57017 L 420.02631,660 h 0.14036 z"/>
		<path d="m 501.2511,642.10526 h -13.19298 v 33.47369 c 0,9.68421 -2.94737,12.49123 -9.40351,12.49123 -6.45614,0 -9.40351,-2.80702 -9.40351,-12.49123 v -33.47369 h -13.19298 v 37.33334 c 0,14.31579 7.85965,21.61403 22.59649,21.61403 14.73685,0 22.59649,-7.29824 22.59649,-21.61403 z"/>
		<path d="M 513.98026,642.10526 V 700 h 13.19298 V 677.12281 L 544.85745,700 h 16.77193 l -19.92982,-23.92982 c 7.08772,-2.24562 11.85965,-8.07018 11.85965,-16.77193 0,-11.36842 -8.14035,-17.19299 -18.8772,-17.19299 z m 13.19298,25.68421 v -15.15789 h 1.54386 c 4.98246,0 10.94737,0.35088 10.94737,7.57895 0,7.22807 -5.96491,7.57894 -10.94737,7.57894 z"/>
		<path d="M 582.47477,642.10526 H 569.28179 V 700 h 13.19298 z"/>
		<path d="m 624.55154,688.07018 c -13.26315,0 -19.08772,-9.26316 -19.08772,-17.05264 0,-7.71929 5.82457,-16.98245 19.08772,-16.98245 6.73685,0 11.36842,3.57895 11.36842,3.57895 l 5.61404,-11.22807 c 0,0 -6.45614,-5.33334 -19.01754,-5.33334 -16.42106,0 -31.36843,13.47369 -31.36843,30.10527 0,16.5614 15.01755,29.89473 31.36843,29.89473 12.5614,0 19.01754,-5.33333 19.01754,-5.33333 l -5.61404,-11.22807 c 0,0 -4.63157,3.57895 -11.36842,3.57895 z"/>
		<path d="m 684.77303,642.10526 h -33.1228 V 700 h 33.1228 v -11.57895 h -19.92982 v -11.64912 h 19.08772 v -11.57895 h -19.08772 v -11.50877 h 19.92982 z"/>
		<path d="M 734.73902,642.10526 H 721.54604 V 700 h 33.12281 v -11.57895 h -19.92983 z"/>
		<path d="m 799.27959,642.10526 h -33.1228 V 700 h 33.1228 v -11.57895 h -19.92982 v -11.64912 h 19.08772 v -11.57895 h -19.08772 v -11.50877 h 19.92982 z"/>
		<path d="M 811.86403,642.10526 V 700 h 21.96492 c 11.99999,0 18.94736,-6.59649 18.94736,-16.14035 0,-9.33333 -5.1228,-13.33333 -12.35087,-14.59649 4.91228,-2.52632 7.22807,-7.08772 7.22807,-12.42105 0,-11.01755 -7.85965,-14.73685 -17.82456,-14.73685 z m 13.19299,22.66667 V 652.2807 h 1.05263 c 5.75438,0 8.77193,1.75439 8.77193,5.89474 0,4.8421 -3.08772,6.59649 -8.77193,6.59649 z m 0,25.05263 v -13.68421 h 4.14035 c 6.24561,0 9.68421,1.89474 9.68421,7.22807 0,4.5614 -3.4386,6.45614 -9.68421,6.45614 z"/>
		<path d="M 876.79493,642.10526 H 863.60195 V 700 h 33.1228 v -11.57895 h -19.92982 z"/>
		<path d="M 938.71273,642.10526 H 926.50221 L 903.13378,700 h 14.17544 l 4.28071,-11.57895 h 22.03508 L 947.90571,700 h 14.17544 z m 0.42105,34.73685 H 926.08115 L 932.53729,660 h 0.14035 z"/>
		<path d="m 982.46381,664.07018 h 0.14036 L 1005.6217,700 h 13.193 v -57.89474 h -13.193 v 35.92983 h -0.1403 L 982.46381,642.10526 H 969.27083 V 700 h 13.19298 z"/>
		<path d="m 1060.8618,688.07018 c -13.2631,0 -19.0877,-9.26316 -19.0877,-17.05264 0,-7.71929 5.8246,-16.98245 19.0877,-16.98245 6.7369,0 11.3685,3.57895 11.3685,3.57895 l 5.614,-11.22807 c 0,0 -6.4561,-5.33334 -19.0175,-5.33334 -16.4211,0 -31.3685,13.47369 -31.3685,30.10527 0,16.5614 15.0176,29.89473 31.3685,29.89473 12.5614,0 19.0175,-5.33333 19.0175,-5.33333 l -5.614,-11.22807 c 0,0 -4.6316,3.57895 -11.3685,3.57895 z"/>
	</g>
	<g aria-label="translated by">
		<path d="m 594.75525,863.42189 c 0,1.19023 2.50797,0.25505 2.50797,1.14772 0,1.14771 -1.78533,8.034 -1.78533,11.94474 0,3.31562 1.57279,3.99575 2.72051,3.99575 2.63549,0 6.24867,-2.89055 6.24867,-3.99575 0,-0.59512 -0.34007,-0.59512 -0.46759,-0.59512 -0.68013,0 -1.65781,1.87036 -3.99575,1.87036 -0.17003,0 -1.74283,-0.085 -1.74283,-2.33794 0,-0.68013 0.97769,-6.20617 1.36026,-8.84166 0.25505,-1.74283 0.12752,-2.50797 1.36025,-2.50797 0.93518,0 2.76302,0.21254 3.44315,0.21254 0.76514,0 1.02019,-0.25505 1.02019,-1.23273 0,-0.5101 -0.21254,-0.80765 -1.10521,-0.80765 -0.46758,0 -0.80765,0.0425 -2.46546,0.0425 -1.40276,0 -1.48778,-0.0425 -1.48778,-0.29755 0,-0.63762 0.76515,-2.63549 0.76515,-3.1881 0,-0.38257 -0.21254,-0.51009 -0.42508,-0.51009 -0.68013,0 -0.76515,0.5526 -2.46547,2.33793 -1.87035,1.95537 -3.48565,1.91286 -3.48565,2.76302 z"/>
		<path d="m 606.86272,867.41764 c 0,0.59511 0.34006,0.72264 0.51009,0.72264 0.21254,0 0.34006,-0.12753 0.46759,-0.25505 0.25505,-0.29756 0.59511,-2.84804 2.33794,-2.84804 0.76514,0 1.44527,0.76515 1.44527,2.89055 0,3.18809 -1.82784,9.43677 -1.82784,11.13708 0,1.0202 0.85015,1.10521 1.27523,1.10521 h 0.21254 c 1.53029,0 1.44528,0 2.38045,-7.22635 l 0.21254,-1.40277 c 0.21254,-1.78533 1.27524,-7.35387 3.1881,-7.35387 1.53028,0 1.36025,1.78533 2.29543,1.78533 0.76514,0 0.85016,-1.31775 0.93517,-1.6153 0.12753,-0.46759 0.46759,-1.02019 0.46759,-1.5728 0,-0.59511 -0.46759,-1.31774 -1.57279,-1.31774 -3.14559,0 -5.27099,4.37832 -5.56855,4.37832 -0.085,0 -0.12752,-0.0425 -1.19022,-2.80553 -0.25505,-0.68013 -0.68013,-1.48778 -1.5728,-1.48778 -0.38257,0 -3.99574,1.02019 -3.99574,5.8661 z"/>
		<path d="m 620.45398,875.15409 c 0,2.76302 0.51009,5.48353 4.54835,5.48353 4.03826,0 7.56642,-5.10096 7.77896,-5.10096 0.29755,0 -0.085,4.7609 2.63549,4.7609 1.14772,0 3.06057,-1.95537 4.12327,-3.48566 0.55261,-0.76514 0.76515,-1.40276 0.76515,-1.82784 0,-0.17003 -0.0425,-0.46759 -0.38257,-0.46759 -0.80766,0 -1.70032,2.76302 -3.10309,2.76302 -0.80765,0 -1.44527,-1.40276 -1.44527,-2.50797 0,-1.6153 0.42508,-3.57067 0.76515,-5.44102 0.34006,-1.91286 0.59511,-3.86823 0.97768,-5.44102 0.29756,-1.23273 0.85016,-2.25292 0.85016,-2.93305 0,-0.46759 -0.21254,-0.63762 -0.46759,-0.63762 -0.85016,0 -1.36025,2.08289 -2.21041,2.08289 -1.40277,0 -2.29543,-0.46759 -3.61318,-0.46759 -1.10521,0 -1.95537,0.21254 -3.10308,0.76515 -2.25292,1.0627 -4.20829,3.10308 -5.73858,5.52603 -1.31775,2.1254 -2.38044,4.54836 -2.38044,6.9288 z m 2.97555,-0.25505 c 0,-0.76514 0.085,-1.53028 0.21254,-2.29543 0.38258,-2.21041 1.40277,-4.12327 2.6355,-6.16365 1.27524,-2.16791 3.52816,-3.44315 5.27099,-3.44315 0.89266,0 2.80552,0.29756 2.80552,1.48778 0,0.12753 -1.14771,7.94899 -2.1679,9.98937 -0.38258,0.76515 -2.38045,3.82572 -5.44102,3.82572 -1.78534,0 -3.31563,-1.27524 -3.31563,-3.40064 z"/>
		<path d="m 641.69999,866.35494 c 0,0.46759 0.085,0.80765 0.38257,0.80765 0.93518,0 1.40277,-2.38044 2.72051,-2.38044 0.42508,0 0.97769,0.85016 0.97769,2.33794 0,3.27311 -1.87036,9.86184 -1.87036,11.64718 0,1.23273 0.34007,1.31775 1.48778,1.31775 1.10521,0 1.44527,-0.17004 1.5728,-1.10521 0.085,-0.59511 -0.21254,-0.085 0.85016,-5.82359 1.02019,-5.48353 0.51009,-5.10096 2.33794,-7.69395 0.97768,-1.40276 1.78533,-1.87035 2.76301,-1.87035 2.76302,0 2.97556,2.80553 2.97556,3.48566 0,1.57279 -0.89267,7.26886 -0.89267,10.49947 0,1.48777 0.72264,2.678 1.5728,2.678 1.87035,0 5.61105,-2.97556 5.61105,-4.63337 0,-0.25505 -0.085,-0.5101 -0.38257,-0.5101 -0.63762,0 -0.80765,0.5101 -1.31775,1.14772 0,0 -0.97768,0.93517 -1.70032,0.93517 -0.46758,0 -0.80765,-0.34006 -0.80765,-1.53028 0,-1.44527 0.72264,-5.95112 0.72264,-8.92668 0,-2.678 -0.59511,-5.31349 -3.57067,-5.31349 -1.78534,0 -4.03826,1.53028 -5.18597,2.42295 -1.5728,1.19022 -1.87035,2.1254 -2.1254,2.1254 -0.38257,0 0.51009,-4.46334 -1.95537,-4.46334 -1.6153,0 -4.16578,3.1881 -4.16578,4.84591 z"/>
		<path d="m 663.65071,877.70457 c 0,2.25292 3.06057,2.80553 4.71838,2.80553 5.44102,0 6.63125,-4.03826 6.63125,-5.56855 0,-2.84803 -1.61531,-4.03826 -2.93305,-5.52603 -1.02019,-1.10521 -3.35813,-2.84804 -3.35813,-4.46334 0,-1.27524 0.63762,-2.25292 2.25292,-2.25292 1.65781,0 1.82784,2.38044 3.35813,2.38044 0.21254,0 1.6153,-0.12752 1.6153,-1.44527 0,-1.65781 -1.65781,-2.21041 -3.95324,-2.21041 -3.31562,0 -5.78108,1.95536 -5.78108,4.8034 0,2.55048 1.6153,3.65568 3.31562,5.39851 1.53029,1.53029 2.93305,2.76302 2.93305,4.76089 0,0.5101 -0.29756,2.72051 -3.40064,2.72051 -2.59299,0 -1.87035,-2.93305 -4.03826,-2.93305 -0.51009,0 -1.36025,0.21254 -1.36025,1.53029 z"/>
		<path d="m 678.75033,876.34431 c 0,3.99575 1.23273,3.99575 2.08289,3.99575 0.80765,0 2.59299,-0.85016 3.6982,-2.12539 1.02019,-1.19023 2.12539,-2.6355 2.12539,-3.06058 0,-0.42508 -0.21254,-0.68013 -0.51009,-0.68013 -1.10521,0 -1.53029,3.01807 -3.86823,3.01807 -0.5526,0 -0.68012,-0.21254 -0.68012,-1.65781 0,-1.44527 0.51009,-4.12327 1.23273,-9.13921 1.36025,-9.13922 0.63762,-7.56642 2.21041,-15.81297 0.12752,-0.80765 0.42508,-1.36025 0.42508,-1.95537 0,-0.42507 -0.21254,-0.68012 -0.89267,-0.68012 -1.1052,0 -2.04038,0.42508 -5.14346,0.63762 -0.5526,0.0425 -0.63762,0.38257 -0.63762,0.59511 0,0.46759 0.38257,0.59511 1.23273,0.59511 0.5101,0 0.59511,-0.0425 1.23273,-0.0425 0.63762,0 1.0627,0.34007 1.0627,0.85016 0,0.5101 -0.63762,4.33581 -1.36025,8.92667 -0.42508,2.72051 -0.63762,5.73858 -1.0202,8.41658 -0.085,0.68013 -1.19022,5.69607 -1.19022,8.11902 z"/>
		<path d="m 689.28036,875.15409 c 0,2.76302 0.51009,5.48353 4.54835,5.48353 4.03826,0 7.56642,-5.10096 7.77896,-5.10096 0.29755,0 -0.085,4.7609 2.63549,4.7609 1.14772,0 3.06058,-1.95537 4.12328,-3.48566 0.5526,-0.76514 0.76514,-1.40276 0.76514,-1.82784 0,-0.17003 -0.0425,-0.46759 -0.38257,-0.46759 -0.80765,0 -1.70032,2.76302 -3.10308,2.76302 -0.80766,0 -1.44528,-1.40276 -1.44528,-2.50797 0,-1.6153 0.42508,-3.57067 0.76515,-5.44102 0.34006,-1.91286 0.59511,-3.86823 0.97768,-5.44102 0.29756,-1.23273 0.85016,-2.25292 0.85016,-2.93305 0,-0.46759 -0.21254,-0.63762 -0.46759,-0.63762 -0.85016,0 -1.36025,2.08289 -2.21041,2.08289 -1.40276,0 -2.29543,-0.46759 -3.61318,-0.46759 -1.10521,0 -1.95537,0.21254 -3.10308,0.76515 -2.25292,1.0627 -4.20829,3.10308 -5.73858,5.52603 -1.31774,2.1254 -2.38044,4.54836 -2.38044,6.9288 z m 2.97556,-0.25505 c 0,-0.76514 0.085,-1.53028 0.21253,-2.29543 0.38258,-2.21041 1.40277,-4.12327 2.6355,-6.16365 1.27524,-2.16791 3.52816,-3.44315 5.27099,-3.44315 0.89266,0 2.80552,0.29756 2.80552,1.48778 0,0.12753 -1.14771,7.94899 -2.1679,9.98937 -0.38257,0.76515 -2.38045,3.82572 -5.44102,3.82572 -1.78534,0 -3.31562,-1.27524 -3.31562,-3.40064 z"/>
		<path d="m 711.15402,863.42189 c 0,1.19023 2.50797,0.25505 2.50797,1.14772 0,1.14771 -1.78533,8.034 -1.78533,11.94474 0,3.31562 1.57279,3.99575 2.72051,3.99575 2.63549,0 6.24867,-2.89055 6.24867,-3.99575 0,-0.59512 -0.34006,-0.59512 -0.46759,-0.59512 -0.68012,0 -1.65781,1.87036 -3.99575,1.87036 -0.17003,0 -1.74282,-0.085 -1.74282,-2.33794 0,-0.68013 0.97768,-6.20617 1.36025,-8.84166 0.25505,-1.74283 0.12753,-2.50797 1.36026,-2.50797 0.93517,0 2.76302,0.21254 3.44314,0.21254 0.76515,0 1.02019,-0.25505 1.02019,-1.23273 0,-0.5101 -0.21254,-0.80765 -1.1052,-0.80765 -0.46759,0 -0.80765,0.0425 -2.46547,0.0425 -1.40276,0 -1.48777,-0.0425 -1.48777,-0.29755 0,-0.63762 0.76514,-2.63549 0.76514,-3.1881 0,-0.38257 -0.21254,-0.51009 -0.42508,-0.51009 -0.68013,0 -0.76514,0.5526 -2.46546,2.33793 -1.87035,1.95537 -3.48566,1.91286 -3.48566,2.76302 z"/>
		<path d="m 723.40296,873.75133 c 0,3.78321 1.31775,6.75877 6.71626,6.75877 3.69819,0 7.39639,-2.97556 7.39639,-3.95325 0,-0.25504 -0.17003,-0.42508 -0.5101,-0.42508 -0.46759,0 -2.1679,1.82785 -4.59086,1.82785 -4.20829,0 -6.12115,-2.1254 -6.12115,-5.3135 0,-1.10521 0.12753,-1.74283 0.72264,-1.74283 3.99575,-0.0425 6.29118,-0.97768 6.67375,-1.14771 0.80765,-0.34006 4.12327,-2.08289 4.12327,-5.14346 0,-1.87036 -1.70032,-3.14559 -3.69819,-3.14559 -2.38045,0 -4.33581,0.76514 -5.90861,2.25292 -2.93305,2.72051 -4.8034,6.37619 -4.8034,10.03188 z m 3.48566,-4.42083 c 0,-0.5526 0.97768,-3.27311 2.25292,-4.59086 1.1052,-1.14772 2.42295,-1.99788 3.48565,-1.99788 0.72264,0 2.25292,0.38258 2.25292,1.99788 0,2.678 -3.48565,5.44102 -7.60892,5.44102 -0.29756,0 -0.38257,-0.5526 -0.38257,-0.85016 z"/>
		<path d="m 739.86816,874.6865 c 0,3.1881 1.48777,5.65356 5.10095,5.65356 4.20829,0 6.3762,-4.76089 6.75877,-4.76089 0.59511,0 -0.38257,4.76089 2.59299,4.76089 2.76301,0 5.44102,-4.2933 5.44102,-5.18597 0,-0.17003 -0.12753,-0.38257 -0.46759,-0.38257 -0.68013,0 -1.65781,2.63549 -3.52816,2.63549 -0.97769,0 -1.10521,-0.89266 -1.10521,-1.82784 0,-1.27524 0.42508,-3.95324 0.89267,-7.18385 2.38044,-17.38575 2.80552,-18.74601 2.80552,-19.85122 0,-0.38257 -0.29755,-0.72263 -0.68013,-0.72263 -1.14771,0 -0.89266,0.085 -3.27311,0.68013 -1.19022,0.29755 -2.678,0.12752 -2.678,0.85015 0,0.29756 0.25505,0.46759 0.68013,0.46759 0.0425,0 1.02019,-0.0425 1.48778,-0.0425 0.63762,0 1.23273,0.42508 1.23273,1.0627 0,0.29756 -1.40277,11.47715 -1.53029,11.47715 -1.19022,0 -2.04038,-0.5526 -3.14559,-0.5526 -5.05845,0 -10.58448,6.33369 -10.58448,12.92242 z m 2.97555,-1.19022 c 0,-4.46334 3.48566,-10.83953 7.39639,-10.83953 1.14772,0 2.84803,0.5526 2.84803,1.70032 0,1.70032 -0.63762,9.18172 -2.33793,11.30712 -1.10521,1.40276 -2.76302,2.21041 -4.29331,2.21041 -2.59299,0 -3.61318,-1.91286 -3.61318,-4.37832 z"/>
		<path d="m 771.07033,876.98193 c 0,2.46547 2.678,3.57067 5.18597,3.57067 6.58874,0 11.60468,-7.60892 11.60468,-13.39001 0,-2.76301 -1.48778,-5.39851 -4.67588,-5.39851 -4.88842,0 -6.88629,3.95324 -7.4814,3.95324 -0.085,0 -0.21254,-0.34006 -0.21254,-0.63762 0,-3.06057 2.72051,-15.72795 2.72051,-16.49309 0,-0.46759 -0.34007,-0.76514 -0.80765,-0.76514 -0.25505,0 -1.02019,0.25505 -2.67801,0.46759 -1.95536,0.25504 -3.14558,0.21254 -3.14558,1.06269 0,0.59512 0.34006,0.59512 0.80765,0.59512 0.63762,0 1.1052,-0.085 1.74282,-0.085 0.85016,0 1.0627,0.29756 1.0627,0.5101 0,1.02019 -0.25505,2.50797 -0.63762,4.33581 -0.63762,3.14559 -1.14771,7.26886 -1.91286,11.68969 -0.59511,3.44315 -1.57279,7.86397 -1.57279,10.58448 z m 2.80553,-0.51009 c 0,-0.42508 0.46758,-4.97343 1.70031,-8.33156 1.36026,-3.6982 4.12328,-4.12328 5.14347,-4.12328 2.33794,0 4.16578,1.95537 4.16578,4.33582 0,4.88841 -3.91073,11.00956 -7.73645,11.00956 -2.63549,0 -3.27311,-1.44527 -3.27311,-2.89054 z"/>
		<path d="m 789.50617,885.3135 c 0,1.95536 1.70032,2.50797 3.52816,2.50797 3.99575,0 6.71626,-4.84591 8.71414,-9.90436 2.50797,-6.33369 3.52816,-12.19979 3.52816,-14.11265 0,-1.31774 -0.72264,-2.25292 -1.65781,-2.25292 -1.02019,0 -1.44527,0.80765 -1.44527,1.5728 0,1.14771 1.0627,1.99787 1.0627,3.2306 0,2.84804 -0.93518,7.39639 -1.53029,7.39639 -0.46759,0 -4.50585,-12.07226 -8.62912,-12.07226 -2.59299,0 -3.44314,3.69819 -3.44314,5.48352 0,0.72264 0.17003,0.93518 0.42507,0.93518 1.27524,0 0.38258,-3.1881 2.84804,-3.1881 2.25292,0 6.9288,10.96706 6.9288,13.3475 0,1.61531 -2.80553,7.05633 -5.27099,7.05633 -1.95537,0 -1.99787,-1.40277 -3.69819,-1.40277 -0.72264,0 -1.36026,0.68013 -1.36026,1.40277 z"/>
	</g>
	<g aria-label="GEORGE MOREHEAD">
		<path d="m 453.0731,918.38596 h -17.82457 v 6.78363 h 8.88889 c 0,4.72515 -4.16374,7.4386 -8.37427,7.4386 -5.4269,0 -9.82456,-5.33334 -9.82456,-11.88304 0,-6.69006 4.39766,-12.07018 9.82456,-12.07018 3.41521,0 6.36258,1.35673 8.60819,4.95906 l 5.75439,-6.31578 c -3.36842,-4.07018 -8.09357,-6.5965 -14.8772,-6.5965 -10.8538,0 -18.80701,8.93568 -18.80701,20.0234 0,11.04093 8.42105,19.9766 18.80701,19.9766 7.57895,0 15.7193,-4.16374 17.82457,-13.94152 z"/>
		<path d="M 483.99707,901.40351 H 461.9152 V 940 h 22.08187 v -7.7193 h -13.28655 v -7.76608 h 12.72515 v -7.7193 h -12.72515 v -7.67251 h 13.28655 z"/>
		<path d="m 492.32237,920.67836 c 0,11.27486 8.04678,20.02339 19.46199,20.02339 11.08772,0 19.4152,-8.74853 19.4152,-20.02339 0,-11.27485 -8.70175,-19.97661 -19.4152,-19.97661 -10.61989,0 -19.46199,8.70176 -19.46199,19.97661 z m 9.49707,0 c 0,-5.75438 3.18129,-11.50877 9.96492,-11.50877 6.83041,0 9.91813,5.75439 9.91813,11.50877 0,5.75439 -2.90059,11.50877 -9.91813,11.50877 -7.20468,0 -9.96492,-5.75438 -9.96492,-11.50877 z"/>
		<path d="M 540.08041,901.40351 V 940 h 8.79532 V 924.74854 L 560.6652,940 h 11.18129 l -13.28655,-15.95322 c 4.72515,-1.49707 7.90643,-5.38011 7.90643,-11.18128 0,-7.57895 -5.4269,-11.46199 -12.58479,-11.46199 z m 8.79532,17.12281 v -10.10527 h 1.02924 c 3.32164,0 7.29825,0.23392 7.29825,5.05263 0,4.81872 -3.97661,5.05264 -7.29825,5.05264 z"/>
		<path d="m 613.51536,918.38596 h -17.82457 v 6.78363 h 8.88889 c 0,4.72515 -4.16374,7.4386 -8.37427,7.4386 -5.4269,0 -9.82456,-5.33334 -9.82456,-11.88304 0,-6.69006 4.39766,-12.07018 9.82456,-12.07018 3.41521,0 6.36258,1.35673 8.60819,4.95906 l 5.75439,-6.31578 c -3.36842,-4.07018 -8.09357,-6.5965 -14.8772,-6.5965 -10.8538,0 -18.80701,8.93568 -18.80701,20.0234 0,11.04093 8.42105,19.9766 18.80701,19.9766 7.57895,0 15.7193,-4.16374 17.82457,-13.94152 z"/>
		<path d="M 644.43933,901.40351 H 622.35746 V 940 h 22.08187 v -7.7193 h -13.28655 v -7.76608 h 12.72515 v -7.7193 h -12.72515 v -7.67251 h 13.28655 z"/>
		<path d="m 704.19445,940 h 8.79532 l -3.46198,-38.59649 h -9.35673 l -8.5614,22.269 -8.56141,-22.269 h -9.35672 L 670.22954,940 h 8.79532 l 1.82456,-22.87719 h 0.23392 l 7.90643,22.64327 h 5.23977 l 7.90643,-22.64327 h 0.23392 z"/>
		<path d="m 719.78215,920.67836 c 0,11.27486 8.04679,20.02339 19.46199,20.02339 11.08772,0 19.41521,-8.74853 19.41521,-20.02339 0,-11.27485 -8.70176,-19.97661 -19.41521,-19.97661 -10.61988,0 -19.46199,8.70176 -19.46199,19.97661 z m 9.49708,0 c 0,-5.75438 3.18129,-11.50877 9.96491,-11.50877 6.83041,0 9.91813,5.75439 9.91813,11.50877 0,5.75439 -2.90058,11.50877 -9.91813,11.50877 -7.20468,0 -9.96491,-5.75438 -9.96491,-11.50877 z"/>
		<path d="M 767.54022,901.40351 V 940 h 8.79532 V 924.74854 L 788.12501,940 h 11.18129 l -13.28655,-15.95322 c 4.72515,-1.49707 7.90643,-5.38011 7.90643,-11.18128 0,-7.57895 -5.4269,-11.46199 -12.58479,-11.46199 z m 8.79532,17.12281 v -10.10527 h 1.02924 c 3.32164,0 7.29824,0.23392 7.29824,5.05263 0,4.81872 -3.9766,5.05264 -7.29824,5.05264 z"/>
		<path d="M 828.15645,901.40351 H 806.07458 V 940 h 22.08187 v -7.7193 H 814.8699 v -7.76608 h 12.72515 v -7.7193 H 814.8699 v -7.67251 h 13.28655 z"/>
		<path d="M 847.00805,924.51462 H 859.4525 V 940 h 8.79532 v -38.59649 h -8.79532 v 15.39181 h -12.44445 v -15.39181 h -8.79532 V 940 h 8.79532 z"/>
		<path d="M 900.93056,901.40351 H 878.84869 V 940 h 22.08187 v -7.7193 h -13.28655 v -7.76608 h 12.72515 v -7.7193 h -12.72515 v -7.67251 h 13.28655 z"/>
		<path d="m 930.86332,901.40351 h -8.14035 L 907.14402,940 h 9.45029 l 2.85381,-7.7193 h 14.69005 L 936.99198,940 h 9.45029 z m 0.2807,23.15789 h -8.70175 l 4.30409,-11.22807 h 0.0936 z"/>
		<path d="M 952.90206,901.40351 V 940 h 11.18129 c 10.61988,0 19.46199,-8.04678 19.46199,-19.32164 0,-11.22807 -8.88889,-19.27485 -19.46199,-19.27485 z m 8.79533,30.73684 v -22.87719 h 1.35672 c 6.54971,0 10.99415,5.00585 10.99415,11.46199 -0.0468,6.45614 -4.49123,11.4152 -10.99415,11.4152 z"/>
	</g>
</svg>
